<mxfile host="app.diagrams.net" modified="2023-11-18T06:36:53.546Z" agent="Mozilla/5.0 (Windows NT 10.0; Win64; x64) AppleWebKit/537.36 (KHTML, like Gecko) Chrome/119.0.0.0 Safari/537.36" version="22.1.3" etag="b-v7v0Q1fG7xRhCvi0ex" type="github">
  <diagram name="Page-1" id="qJFPX0iyVQhX4H7i3Dqn">
    <mxGraphModel>
      <root>
        <mxCell id="0" />
        <mxCell id="1" parent="0" />
      </root>
    </mxGraphModel>
  </diagram>
</mxfile>
